<?xml version="1.0" encoding="UTF-8"?>
<svg data-name="Layer 1" viewBox="5 25 90 68" xmlns="http://www.w3.org/2000/svg" aria-label="MetaMP logo">
  <title>MetaMP logo</title>
  <path fill="#005EB8" d="M58.089747,88.767134A14.83605,15.395492 0 0 0 72.925796,73.371642V50.278404a22.254075,23.09324 0 0 0-44.508151,0v3.848875A14.83605,15.395492 0 0 0 13.581596,69.52277v19.244364ZM50.67172,34.882913a14.83605,15.395492 0 0 1 12.833184,7.697746h-1.706146a14.83605,15.395492 0 0 0-11.127038,5.244089 14.83605,15.395492 0 0 0-11.127037-5.244089h-1.706145a14.83605,15.395492 0 0 1 12.833182-7.697746ZM35.835671,50.278404h3.709012a7.4180253,7.6977459 0 0 1 7.418026,7.697747v3.848872h7.418025v-3.848872a7.4180253,7.6977459 0 0 1 7.418024-7.697747h3.709013v23.093238a7.4180253,7.6977459 0 0 1-7.418024,7.697747H33.832805a14.72478,15.280026 0 0 0 2.002866-7.697747ZM20.99962,69.52277a7.4180253,7.6977459 0 0 1 7.418025-7.697747v11.546619a7.4180253,7.6977459 0 0 1-7.418025,7.697747Z"/>
  <path fill="#005EB8" d="m62.283029,85.228498c8.707497,0 1.020224,-14.111617 8.638347,-14.169668l2.281648,-0.01739c5.804996,0 10.510877,-4.116669 10.510877,-9.194839V50.353057C58.022956,47.891814 74.725166,77.352229 62.283029,85.228498ZM78.458461,61.846607c0,2.539083 -2.352938,4.59742 -5.255437,4.59742v-6.896129c0,-2.539084 2.352938,-4.597421 5.255437,-4.597421Z"/>
</svg>
